<svg id="Layer_1" enable-background="new 0 0 512 512" height="512" viewBox="0 0 512 512" width="512" xmlns="http://www.w3.org/2000/svg"><g><g><g id="XMLID_463_"><g id="XMLID_464_"><g id="XMLID_465_"><g id="XMLID_466_"><g id="XMLID_467_"><g id="XMLID_468_"><g id="XMLID_469_"><g id="XMLID_470_"><g id="XMLID_471_"><g id="XMLID_472_"><g id="XMLID_473_"><g id="XMLID_475_"><g id="XMLID_476_"><g id="XMLID_477_"><circle id="XMLID_478_" cx="256" cy="256" fill="#27e0c9" r="256"/></g></g></g></g></g></g></g></g></g></g></g></g></g></g></g><path d="m512 256c0-28.433-4.644-55.78-13.2-81.334l-75.336-75.336-37.714-7.58-37.164-38.499-34.086 45.499-75.833-5.417-40.08-40.082-115.894 365.76 72.257 72.257c31.003 13.334 65.161 20.732 101.05 20.732 141.385 0 256-114.615 256-256z" fill="#0ac1a7"/><g><g><g><path d="m82.693 149.903h346.615v236.046h-346.615z" fill="#fff"/><path d="m256 149.9h173.31v236.05h-173.31z" fill="#f5edf9"/><path d="m82.693 372.968h346.615v46.043h-346.615z" fill="#e5e5e5"/><path d="m256 372.97h173.31v46.04h-173.31z" fill="#d1d1d1"/><path d="m429.307 169.185h-346.614v-52.336c0-16.117 13.065-29.182 29.182-29.182h288.251c16.117 0 29.182 13.065 29.182 29.182v52.336z" fill="#fed943"/><g><path d="m429.31 116.85v52.33h-173.31v-81.51h144.13c16.11 0 29.18 13.06 29.18 29.18z" fill="#ffba31"/></g></g><g><g><path d="m163.413 53.251h35.173v68.83h-35.173z" fill="#7f6c82"/></g><g><path d="m313.414 53.251h35.173v68.83h-35.173z" fill="#6a586d"/></g></g></g><g><path d="m122.825 210.851h38.05v38.05h-38.05z" fill="#7f6c82"/><path d="m217.95 248.901c-10.507 0-19.025-8.518-19.025-19.025 0-10.507 8.518-19.025 19.025-19.025 10.507 0 19.025 8.518 19.025 19.025 0 10.507-8.518 19.025-19.025 19.025z" fill="#ff5a99"/><g fill="#6a586d"><path d="m275.025 210.851h38.05v38.05h-38.05z"/><path d="m351.125 210.851h38.05v38.05h-38.05z"/></g></g><g><path d="m122.825 286.951h38.05v38.05h-38.05z" fill="#7f6c82"/><path d="m198.925 286.951h38.05v38.05h-38.05z" fill="#7f6c82"/><path d="m275.025 286.951h38.05v38.05h-38.05z" fill="#6a586d"/><path d="m370.15 325.001c-10.507 0-19.025-8.518-19.025-19.025 0-10.507 8.518-19.025 19.025-19.025 10.507 0 19.025 8.518 19.025 19.025 0 10.507-8.518 19.025-19.025 19.025z" fill="#fc3e81"/></g></g></g></svg>