<svg id="Capa_1" enable-background="new 0 0 512 512" height="512" viewBox="0 0 512 512" width="512" xmlns="http://www.w3.org/2000/svg"><g><path d="m495.95 442.392c-2.699 26.476-23.952 47.244-50.499 49.191-126.3 9.282-252.6 9.282-378.901 0-26.548-1.947-47.8-22.715-50.499-49.191-9.458-92.861-10.045-185.721-1.773-278.582 1.896-21.376 4.265-42.753 7.108-64.129 156.412-14.227 312.814-14.227 469.227 0 2.843 21.376 5.213 42.753 7.108 64.129 8.273 92.861 7.686 185.721-1.771 278.582z" fill="#f9f6f9"/><path d="m497.722 163.81c-.35.021-.701.031-1.051.041-160.451 3.194-320.891 3.194-481.342 0-.35-.01-.701-.021-1.051-.041 1.896-21.376 4.265-42.753 7.108-64.129 156.412-14.227 312.814-14.227 469.227 0 2.844 21.377 5.213 42.753 7.109 64.129z" fill="#dddaec"/><path d="m475.63 133.673c-146.42 2.918-292.84 2.918-439.26 0-15.823-.315-29.562-11.127-33.482-26.46-3.851-15.064-3.851-30.128 0-45.192 3.92-15.333 17.659-26.144 33.482-26.46 146.42-2.918 292.84-2.918 439.26 0 15.823.315 29.562 11.127 33.482 26.46 3.851 15.064 3.851 30.128 0 45.192-3.92 15.333-17.659 26.145-33.482 26.46z" fill="#e7a561"/><path d="m64.287 134.207c-9.303-.165-18.615-.34-27.918-.525-15.813-.319-29.556-11.126-33.481-26.465-3.843-15.061-3.843-30.122 0-45.194 3.925-15.329 17.668-26.136 33.481-26.455 9.303-.185 18.615-.361 27.918-.525-11.857 3.791-21.304 13.423-24.498 25.94-4.028 15.762-4.028 31.524 0 47.285 3.194 12.515 12.641 22.147 24.498 25.939z" fill="#e29375"/><g><g><path d="m296.467 236.922h-7.399c-11.089 0-20.079-8.99-20.079-20.079v-25.951c0-11.089 8.99-20.079 20.079-20.079h7.399c11.089 0 20.079 8.99 20.079 20.079v25.951c-.001 11.09-8.99 20.079-20.079 20.079z" fill="#95d6a4"/></g><g><path d="m370.001 236.922h-7.399c-11.089 0-20.079-8.99-20.079-20.079v-25.951c0-11.089 8.99-20.079 20.079-20.079h7.399c11.089 0 20.079 8.99 20.079 20.079v25.951c0 11.09-8.99 20.079-20.079 20.079z" fill="#dd636e"/></g><g><path d="m443.536 236.922h-7.399c-11.089 0-20.079-8.99-20.079-20.079v-25.951c0-11.089 8.99-20.079 20.079-20.079h7.399c11.089 0 20.079 8.99 20.079 20.079v25.951c-.001 11.09-8.99 20.079-20.079 20.079z" fill="#dd636e"/></g></g><g><g><path d="m75.863 336.733h-7.399c-11.089 0-20.079-8.99-20.079-20.079v-25.951c0-11.089 8.99-20.079 20.079-20.079h7.399c11.089 0 20.079 8.99 20.079 20.079v25.951c0 11.089-8.99 20.079-20.079 20.079z" fill="#95d6a4"/></g><g><path d="m149.398 336.733h-7.399c-11.089 0-20.079-8.99-20.079-20.079v-25.951c0-11.089 8.99-20.079 20.079-20.079h7.399c11.089 0 20.079 8.99 20.079 20.079v25.951c0 11.089-8.99 20.079-20.079 20.079z" fill="#95d6a4"/></g><g><path d="m222.932 336.733h-7.399c-11.089 0-20.079-8.99-20.079-20.079v-25.951c0-11.089 8.99-20.079 20.079-20.079h7.399c11.089 0 20.079 8.99 20.079 20.079v25.951c0 11.089-8.99 20.079-20.079 20.079z" fill="#95d6a4"/></g><g><path d="m296.467 336.733h-7.399c-11.089 0-20.079-8.99-20.079-20.079v-25.951c0-11.089 8.99-20.079 20.079-20.079h7.399c11.089 0 20.079 8.99 20.079 20.079v25.951c-.001 11.089-8.99 20.079-20.079 20.079z" fill="#95d6a4"/></g><g><path d="m370.001 336.733h-7.399c-11.089 0-20.079-8.99-20.079-20.079v-25.951c0-11.089 8.99-20.079 20.079-20.079h7.399c11.089 0 20.079 8.99 20.079 20.079v25.951c0 11.089-8.99 20.079-20.079 20.079z" fill="#dd636e"/></g><g><path d="m443.536 336.733h-7.399c-11.089 0-20.079-8.99-20.079-20.079v-25.951c0-11.089 8.99-20.079 20.079-20.079h7.399c11.089 0 20.079 8.99 20.079 20.079v25.951c-.001 11.089-8.99 20.079-20.079 20.079z" fill="#dd636e"/></g></g><g><g><path d="m75.863 436.543h-7.399c-11.089 0-20.079-8.99-20.079-20.079v-25.951c0-11.089 8.99-20.079 20.079-20.079h7.399c11.089 0 20.079 8.99 20.079 20.079v25.951c0 11.089-8.99 20.079-20.079 20.079z" fill="#95d6a4"/></g><g><path d="m149.398 436.543h-7.399c-11.089 0-20.079-8.99-20.079-20.079v-25.951c0-11.089 8.99-20.079 20.079-20.079h7.399c11.089 0 20.079 8.99 20.079 20.079v25.951c0 11.089-8.99 20.079-20.079 20.079z" fill="#95d6a4"/></g><g><path d="m222.932 436.543h-7.399c-11.089 0-20.079-8.99-20.079-20.079v-25.951c0-11.089 8.99-20.079 20.079-20.079h7.399c11.089 0 20.079 8.99 20.079 20.079v25.951c0 11.089-8.99 20.079-20.079 20.079z" fill="#95d6a4"/></g><g><path d="m296.467 436.543h-7.399c-11.089 0-20.079-8.99-20.079-20.079v-25.951c0-11.089 8.99-20.079 20.079-20.079h7.399c11.089 0 20.079 8.99 20.079 20.079v25.951c-.001 11.089-8.99 20.079-20.079 20.079z" fill="#95d6a4"/></g><g><path d="m370.001 436.543h-7.399c-11.089 0-20.079-8.99-20.079-20.079v-25.951c0-11.089 8.99-20.079 20.079-20.079h7.399c11.089 0 20.079 8.99 20.079 20.079v25.951c0 11.089-8.99 20.079-20.079 20.079z" fill="#dd636e"/></g></g><g fill="#698ed5"><path d="m78.267 236.68c-2.423 0-4.712-1.138-6.175-3.083l-19.086-25.381c-2.565-3.41-1.879-8.254 1.531-10.819 3.411-2.565 8.255-1.878 10.819 1.532l12.383 16.468 26.755-42.014c2.292-3.6 7.068-4.659 10.667-2.367 3.6 2.292 4.659 7.068 2.367 10.667l-32.745 51.421c-1.361 2.138-3.685 3.472-6.217 3.57-.099.004-.199.006-.299.006z"/><path d="m145.335 236.68c-2.423 0-4.712-1.138-6.175-3.083l-19.086-25.381c-2.565-3.41-1.879-8.254 1.532-10.819 3.41-2.565 8.255-1.878 10.818 1.532l12.383 16.468 26.755-42.014c2.292-3.6 7.068-4.659 10.667-2.367 3.6 2.292 4.659 7.068 2.367 10.667l-32.745 51.421c-1.361 2.138-3.685 3.472-6.217 3.57-.099.004-.199.006-.299.006z"/><path d="m212.403 236.68c-2.423 0-4.712-1.138-6.175-3.083l-19.086-25.381c-2.565-3.41-1.879-8.254 1.531-10.819 3.411-2.564 8.255-1.878 10.819 1.532l12.384 16.468 26.755-42.014c2.292-3.599 7.067-4.659 10.667-2.367s4.659 7.068 2.367 10.667l-32.744 51.421c-1.361 2.138-3.685 3.472-6.217 3.57-.101.004-.201.006-.301.006z"/></g><path d="m69.14 84.618c-10.151 0-18.38-8.229-18.38-18.38v-34.402c0-10.151 8.229-18.38 18.38-18.38 10.151 0 18.38 8.229 18.38 18.38v34.402c0 10.151-8.229 18.38-18.38 18.38z" fill="#f6e266"/><path d="m75.031 83.654c-1.854.628-3.832.968-5.893.968-10.147 0-18.378-8.231-18.378-18.378v-34.408c0-10.147 8.231-18.378 18.378-18.378 2.06 0 4.038.34 5.893.968-7.273 2.442-12.506 9.323-12.506 17.41v34.408c0 8.086 5.233 14.968 12.506 17.41z" fill="#ffd064"/><path d="m143.884 84.618c-10.151 0-18.38-8.229-18.38-18.38v-34.402c0-10.151 8.229-18.38 18.38-18.38 10.151 0 18.38 8.229 18.38 18.38v34.402c0 10.151-8.229 18.38-18.38 18.38z" fill="#f6e266"/><path d="m149.775 83.654c-1.854.628-3.832.968-5.893.968-10.147 0-18.378-8.231-18.378-18.378v-34.408c0-10.147 8.231-18.378 18.378-18.378 2.06 0 4.038.34 5.893.968-7.273 2.442-12.506 9.323-12.506 17.41v34.408c0 8.086 5.233 14.968 12.506 17.41z" fill="#ffd064"/><g><path d="m218.628 84.618c-10.151 0-18.38-8.229-18.38-18.38v-34.402c0-10.151 8.229-18.38 18.38-18.38 10.151 0 18.38 8.229 18.38 18.38v34.402c0 10.151-8.229 18.38-18.38 18.38z" fill="#f6e266"/><path d="m224.519 83.654c-1.854.628-3.832.968-5.893.968-10.147 0-18.378-8.231-18.378-18.378v-34.408c0-10.147 8.231-18.378 18.378-18.378 2.06 0 4.038.34 5.893.968-7.273 2.442-12.506 9.323-12.506 17.41v34.408c0 8.086 5.233 14.968 12.506 17.41z" fill="#ffd064"/><path d="m293.372 84.618c-10.151 0-18.38-8.229-18.38-18.38v-34.402c0-10.151 8.229-18.38 18.38-18.38 10.151 0 18.38 8.229 18.38 18.38v34.402c0 10.151-8.229 18.38-18.38 18.38z" fill="#f6e266"/><path d="m299.263 83.654c-1.854.628-3.832.968-5.893.968-10.147 0-18.378-8.231-18.378-18.378v-34.408c0-10.147 8.231-18.378 18.378-18.378 2.06 0 4.038.34 5.893.968-7.273 2.442-12.506 9.323-12.506 17.41v34.408c0 8.086 5.233 14.968 12.506 17.41z" fill="#ffd064"/><path d="m368.116 84.618c-10.151 0-18.38-8.229-18.38-18.38v-34.402c0-10.151 8.229-18.38 18.38-18.38 10.151 0 18.38 8.229 18.38 18.38v34.402c0 10.151-8.229 18.38-18.38 18.38z" fill="#f6e266"/><path d="m374.007 83.654c-1.854.628-3.832.968-5.893.968-10.147 0-18.378-8.231-18.378-18.378v-34.408c0-10.147 8.231-18.378 18.378-18.378 2.06 0 4.038.34 5.893.968-7.273 2.442-12.506 9.323-12.506 17.41v34.408c-.001 8.086 5.233 14.968 12.506 17.41z" fill="#ffd064"/><path d="m442.86 84.618c-10.151 0-18.38-8.229-18.38-18.38v-34.402c0-10.151 8.229-18.38 18.38-18.38 10.151 0 18.38 8.229 18.38 18.38v34.402c0 10.151-8.229 18.38-18.38 18.38z" fill="#f6e266"/><path d="m448.751 83.654c-1.854.628-3.832.968-5.893.968-10.147 0-18.378-8.231-18.378-18.378v-34.408c0-10.147 8.231-18.378 18.378-18.378 2.06 0 4.038.34 5.893.968-7.273 2.442-12.506 9.323-12.506 17.41v34.408c-.001 8.086 5.233 14.968 12.506 17.41z" fill="#ffd064"/></g></g></svg>